<?xml version="1.0" encoding="UTF-8"?>
<!DOCTYPE svg PUBLIC "-//W3C//DTD SVG 1.1//EN" "http://www.w3.org/Graphics/SVG/1.1/DTD/svg11.dtd">
<!-- Creator: CorelDRAW X8 -->
<svg xmlns="http://www.w3.org/2000/svg" xml:space="preserve" width="4741px" height="1077px" version="1.1" style="shape-rendering:geometricPrecision; text-rendering:geometricPrecision; image-rendering:optimizeQuality; fill-rule:evenodd; clip-rule:evenodd"
viewBox="0 0 4741 1077"
 xmlns:xlink="http://www.w3.org/1999/xlink">
 <defs>
  <style type="text/css">
   <![CDATA[
    .fil0 {fill:#3956FE}
    .fil1 {fill:#3B4B66}
   ]]>
  </style>
 </defs>
 <g id="Слой_x0020_1">
  <metadata id="CorelCorpID_0Corel-Layer"/>
  <path class="fil0" d="M365 55c100,0 188,20 263,61 76,39 134,95 175,167 40,73 61,155 61,248 0,92 -21,175 -63,247 -40,72 -99,129 -174,170 -75,41 -162,61 -262,61l-378 0 0 -954 378 0zm-20 720c78,0 139,-21 183,-64 44,-42 66,-102 66,-180 0,-78 -22,-139 -66,-181 -44,-44 -105,-65 -183,-65l-92 0 0 490 92 0zm944 244c-111,0 -202,-26 -273,-79 -72,-53 -110,-129 -115,-227l283 0c2,33 12,58 29,73 18,15 40,23 67,23 24,0 44,-6 59,-18 17,-12 25,-30 25,-51 0,-28 -13,-50 -40,-65 -26,-16 -68,-33 -127,-52 -62,-20 -113,-40 -151,-59 -38,-20 -72,-49 -101,-86 -28,-37 -42,-87 -42,-147 0,-62 16,-114 46,-157 31,-44 74,-78 128,-100 54,-23 115,-34 184,-34 111,0 199,26 265,78 67,52 103,124 107,218l-288 0c-1,-29 -10,-50 -27,-65 -17,-14 -38,-21 -64,-21 -20,0 -36,5 -49,17 -12,12 -19,29 -19,50 0,18 7,34 21,48 14,12 32,24 52,34 21,9 52,20 93,35 60,21 110,41 149,62 39,20 73,48 101,85 29,36 43,83 43,139 0,56 -14,107 -43,153 -28,45 -69,80 -123,107 -53,26 -117,39 -190,39zm1073 -964l0 211 -382 0 0 168 282 0 0 202 -282 0 0 373 -265 0 0 -954 647 0z"/>
  <path class="fil1" d="M2790 29c25,0 47,5 66,15 19,9 33,23 43,41 11,18 16,39 16,63 0,24 -5,44 -16,62 -10,18 -24,31 -43,41 -19,9 -41,14 -66,14l-77 0 0 -236 77 0zm0 204c27,0 49,-7 63,-22 15,-15 22,-36 22,-63 0,-28 -7,-49 -22,-64 -14,-16 -36,-23 -63,-23l-38 0 0 172 38 0zm361 -66c0,7 0,13 -1,19l-143 0c1,15 7,26 17,36 10,9 22,13 36,13 21,0 36,-9 44,-26l42 0c-6,17 -16,31 -31,42 -14,11 -33,17 -55,17 -17,0 -33,-4 -48,-12 -14,-8 -25,-20 -33,-34 -8,-15 -12,-32 -12,-51 0,-19 4,-36 12,-50 8,-15 19,-26 33,-34 14,-8 30,-12 48,-12 18,0 34,4 47,11 14,8 25,19 33,33 7,14 11,30 11,48zm-40 -13c0,-14 -5,-25 -15,-34 -10,-8 -23,-13 -37,-13 -14,0 -25,5 -34,13 -10,9 -16,20 -17,34l103 0zm183 -45l-34 0 0 156 -39 0 0 -156 -22 0 0 -31 22 0 0 -13c0,-22 6,-37 17,-47 11,-10 29,-15 54,-15l0 32c-12,0 -20,3 -25,7 -5,4 -7,12 -7,23l0 13 34 0 0 31zm81 -56c-7,0 -13,-2 -17,-7 -5,-5 -7,-10 -7,-17 0,-7 2,-13 7,-18 4,-5 10,-7 17,-7 7,0 13,2 18,7 4,5 7,11 7,18 0,7 -3,12 -7,17 -5,5 -11,7 -18,7zm19 25l0 187 -38 0 0 -187 38 0zm172 -3c15,0 28,3 39,9 12,6 21,15 28,27 6,12 10,27 10,43l0 111 -39 0 0 -105c0,-16 -4,-29 -12,-38 -8,-9 -20,-14 -34,-14 -15,0 -26,5 -35,14 -8,9 -12,22 -12,38l0 105 -39 0 0 -187 39 0 0 21c6,-7 14,-13 24,-18 10,-4 20,-6 31,-6zm173 -22c-7,0 -13,-2 -18,-7 -5,-5 -7,-10 -7,-17 0,-7 2,-13 7,-18 5,-5 11,-7 18,-7 6,0 12,2 17,7 5,5 7,11 7,18 0,7 -2,12 -7,17 -5,5 -11,7 -17,7zm19 25l0 187 -39 0 0 -187 39 0zm171 -3c15,0 28,3 40,9 11,6 21,15 27,27 7,12 10,27 10,43l0 111 -38 0 0 -105c0,-16 -5,-29 -13,-38 -8,-9 -20,-14 -34,-14 -14,0 -26,5 -35,14 -8,9 -12,22 -12,38l0 105 -39 0 0 -187 39 0 0 21c6,-7 14,-13 24,-18 10,-4 20,-6 31,-6zm228 0c15,0 28,3 39,9 11,5 20,12 26,21l0 -27 39 0 0 190c0,17 -4,32 -11,45 -7,14 -18,24 -31,32 -14,8 -30,12 -49,12 -25,0 -46,-6 -63,-18 -17,-12 -26,-28 -28,-48l38 0c3,9 9,17 18,23 10,6 22,9 35,9 16,0 28,-5 38,-14 9,-10 14,-23 14,-41l0 -32c-6,9 -15,17 -27,23 -11,6 -23,9 -38,9 -16,0 -31,-5 -44,-13 -14,-8 -24,-20 -32,-34 -8,-15 -12,-32 -12,-51 0,-18 4,-35 12,-49 8,-15 18,-26 32,-34 13,-8 28,-12 44,-12zm65 96c0,-13 -3,-24 -8,-33 -5,-10 -12,-17 -21,-22 -8,-5 -18,-8 -27,-8 -10,0 -20,3 -28,8 -9,5 -16,12 -21,21 -5,9 -8,21 -8,33 0,13 3,25 8,34 5,10 12,17 21,23 9,5 18,7 28,7 9,0 19,-2 27,-7 9,-5 16,-13 21,-22 5,-10 8,-21 8,-34zm-1431 502c-16,0 -30,-3 -43,-8 -13,-6 -23,-14 -30,-24 -7,-10 -11,-22 -11,-35l42 0c1,10 4,18 11,25 8,6 18,10 31,10 13,0 23,-4 31,-10 7,-6 11,-15 11,-25 0,-8 -2,-14 -7,-19 -5,-5 -10,-9 -17,-12 -7,-2 -17,-5 -29,-9 -15,-4 -28,-8 -37,-12 -10,-4 -18,-11 -25,-19 -7,-9 -10,-21 -10,-36 0,-13 3,-25 10,-35 7,-10 16,-18 29,-23 12,-6 26,-9 42,-9 23,0 41,6 56,18 14,11 23,27 24,46l-43 0c0,-8 -4,-16 -12,-22 -7,-6 -17,-9 -29,-9 -11,0 -20,3 -27,9 -7,5 -11,13 -11,24 0,7 2,13 7,18 4,5 10,8 17,11 6,3 16,6 27,9 16,4 29,8 38,13 10,4 19,10 25,20 7,8 11,20 11,35 0,12 -3,23 -10,34 -6,11 -16,19 -28,26 -12,6 -27,9 -43,9zm322 -189l0 187 -38 0 0 -22c-6,7 -14,14 -24,18 -10,4 -20,6 -31,6 -15,0 -28,-3 -40,-9 -12,-6 -21,-15 -27,-27 -7,-12 -10,-26 -10,-43l0 -110 38 0 0 104c0,17 4,30 13,39 8,9 19,13 34,13 14,0 26,-4 34,-13 9,-9 13,-22 13,-39l0 -104 38 0zm66 93c0,-19 3,-36 11,-50 8,-15 19,-26 33,-34 13,-8 29,-12 47,-12 23,0 41,6 56,16 15,11 25,26 30,46l-42 0c-3,-9 -9,-16 -16,-22 -7,-5 -17,-7 -28,-7 -16,0 -29,5 -38,17 -9,11 -14,26 -14,46 0,20 5,36 14,47 9,12 22,17 38,17 22,0 37,-10 44,-29l42 0c-6,19 -16,34 -31,45 -14,11 -33,17 -55,17 -18,0 -34,-4 -47,-12 -14,-8 -25,-19 -33,-34 -8,-15 -11,-31 -11,-51zm230 0c0,-19 3,-36 11,-50 8,-15 19,-26 33,-34 13,-8 29,-12 47,-12 23,0 41,6 56,16 15,11 25,26 30,46l-42 0c-3,-9 -8,-16 -16,-22 -7,-5 -17,-7 -28,-7 -16,0 -28,5 -38,17 -9,11 -14,26 -14,46 0,20 5,36 14,47 10,12 22,17 38,17 22,0 37,-10 44,-29l42 0c-5,19 -16,34 -30,45 -15,11 -34,17 -56,17 -18,0 -34,-4 -47,-12 -14,-8 -25,-19 -33,-34 -8,-15 -11,-31 -11,-51zm413 -4c0,7 0,13 -1,19l-142 0c1,15 6,27 16,36 10,9 22,13 37,13 21,0 35,-8 44,-26l41 0c-5,17 -15,31 -30,43 -15,10 -33,16 -55,16 -18,0 -34,-4 -48,-12 -14,-8 -25,-19 -33,-34 -8,-15 -12,-31 -12,-51 0,-19 4,-36 11,-50 8,-15 19,-26 33,-34 14,-8 30,-12 49,-12 17,0 33,4 47,12 14,7 24,18 32,32 8,14 11,30 11,48zm-40 -12c0,-14 -5,-26 -15,-34 -10,-9 -22,-13 -37,-13 -13,0 -25,4 -34,13 -10,8 -15,19 -17,34l103 0zm173 113c-14,0 -28,-3 -39,-8 -12,-5 -21,-13 -28,-22 -7,-9 -10,-19 -11,-30l40 0c1,7 5,14 12,20 7,5 15,7 26,7 10,0 19,-2 25,-6 6,-4 9,-9 9,-16 0,-7 -4,-12 -10,-16 -7,-3 -17,-7 -32,-11 -14,-4 -25,-7 -34,-11 -9,-4 -17,-9 -23,-17 -6,-7 -10,-17 -10,-29 0,-10 3,-19 9,-27 6,-8 14,-15 25,-20 11,-4 24,-7 38,-7 21,0 38,6 51,16 13,11 20,26 21,44l-38 0c-1,-8 -4,-15 -10,-20 -7,-5 -15,-7 -25,-7 -10,0 -18,2 -23,5 -6,4 -9,9 -9,16 0,5 2,9 6,12 3,4 8,6 13,8 5,2 13,4 23,7 14,4 25,8 33,12 9,3 17,9 23,16 6,7 10,17 10,29 0,10 -3,20 -9,28 -6,8 -14,15 -25,20 -11,4 -23,7 -38,7zm208 0c-14,0 -28,-3 -39,-8 -12,-5 -21,-13 -28,-22 -7,-9 -10,-19 -11,-30l40 0c1,7 5,14 11,20 7,5 16,7 27,7 10,0 19,-2 25,-6 6,-4 9,-9 9,-16 0,-7 -4,-12 -10,-16 -7,-3 -17,-7 -32,-11 -14,-4 -25,-7 -34,-11 -9,-4 -17,-9 -23,-17 -6,-7 -10,-17 -10,-29 0,-10 3,-19 9,-27 6,-8 14,-15 25,-20 11,-4 24,-7 38,-7 21,0 38,6 51,16 13,11 20,26 21,44l-38 0c-1,-8 -4,-15 -10,-20 -7,-5 -15,-7 -25,-7 -10,0 -18,2 -24,5 -5,4 -8,9 -8,16 0,5 2,9 6,12 3,4 8,6 13,8 5,2 13,4 23,7 14,4 25,8 33,12 9,3 16,9 23,16 6,7 9,17 10,29 0,10 -3,20 -9,28 -6,8 -14,15 -25,20 -11,4 -23,7 -38,7zm219 -158l-35 0 0 155 -39 0 0 -155 -22 0 0 -32 22 0 0 -13c0,-21 6,-37 17,-47 12,-10 30,-15 54,-15l0 33c-12,0 -20,2 -25,6 -5,5 -7,12 -7,23l0 13 35 0 0 32zm230 -32l0 187 -39 0 0 -22c-6,7 -14,14 -24,18 -9,4 -20,6 -31,6 -15,0 -28,-3 -40,-9 -11,-6 -20,-15 -27,-27 -6,-12 -10,-26 -10,-43l0 -110 38 0 0 104c0,17 5,30 13,39 8,9 20,13 34,13 15,0 26,-4 34,-13 9,-9 13,-22 13,-39l0 -104 39 0zm116 -64l0 251 -38 0 0 -251 38 0zm-1876 422l0 31 -100 0 0 70 78 0 0 31 -78 0 0 103 -39 0 0 -235 139 0zm231 48l0 187 -38 0 0 -22c-6,8 -14,14 -24,18 -10,5 -20,7 -31,7 -15,0 -28,-3 -40,-9 -12,-7 -21,-16 -28,-28 -6,-11 -9,-26 -9,-43l0 -110 38 0 0 104c0,17 4,30 12,39 9,9 20,13 35,13 14,0 25,-4 34,-13 8,-9 13,-22 13,-39l0 -104 38 0zm123 32l0 103c0,7 2,12 5,15 3,3 9,5 17,5l24 0 0 32 -31 0c-17,0 -30,-4 -40,-12 -9,-8 -14,-22 -14,-40l0 -103 -22 0 0 -32 22 0 0 -46 39 0 0 46 46 0 0 32 -46 0zm277 -32l0 187 -38 0 0 -22c-6,8 -14,14 -24,18 -10,5 -20,7 -32,7 -14,0 -27,-3 -39,-9 -12,-7 -21,-16 -28,-28 -6,-11 -9,-26 -9,-43l0 -110 38 0 0 104c0,17 4,30 12,39 9,9 20,13 35,13 14,0 25,-4 34,-13 8,-9 13,-22 13,-39l0 -104 38 0zm117 28c6,-10 13,-17 22,-22 10,-6 21,-9 34,-9l0 40 -10 0c-15,0 -27,4 -35,12 -7,8 -11,21 -11,40l0 98 -39 0 0 -187 39 0 0 28zm289 61c0,7 0,13 -1,19l-143 0c2,15 7,27 17,36 10,9 22,14 37,14 20,0 35,-9 44,-27l41 0c-5,18 -16,32 -31,43 -14,11 -33,16 -54,16 -18,0 -34,-4 -49,-12 -14,-8 -25,-19 -33,-34 -8,-14 -12,-31 -12,-50 0,-20 4,-36 12,-51 8,-15 19,-26 33,-34 14,-8 30,-12 49,-12 17,0 33,4 47,12 13,8 24,18 32,32 7,14 11,30 11,48zm-40 -12c0,-14 -5,-26 -15,-34 -10,-9 -22,-13 -37,-13 -13,0 -25,4 -34,13 -10,8 -15,20 -17,34l103 0z"/>
 </g>
</svg>
