<svg width="80" height="80" viewBox="0 0 80 80" fill="none" xmlns="http://www.w3.org/2000/svg">
<g clip-path="url(#clip0_2114_18655)">
<rect width="80" height="80" rx="40" fill="#55DD83" fill-opacity="0.06"/>
<circle cx="40" cy="40" r="20" fill="#55DD83"/>
<path fill-rule="evenodd" clip-rule="evenodd" d="M37.5076 46.9998C37.1856 46.9998 36.8776 46.8668 36.6571 46.6323L30.9836 40.5902C30.5414 40.1212 30.5659 39.3827 31.0349 38.9417C31.5051 38.5007 32.2436 38.524 32.6834 38.993L37.4959 44.1158L47.3053 33.3802C47.7416 32.903 48.4789 32.8715 48.9549 33.3055C49.4298 33.7395 49.4624 34.478 49.0284 34.9528L38.3686 46.6195C38.1504 46.8598 37.8401 46.9975 37.5158 46.9998H37.5076Z" fill="white"/>
<mask id="mask0_2114_18655" style="mask-type:luminance" maskUnits="userSpaceOnUse" x="30" y="33" width="20" height="14">
<path fill-rule="evenodd" clip-rule="evenodd" d="M37.5076 46.9998C37.1856 46.9998 36.8776 46.8668 36.6571 46.6323L30.9836 40.5902C30.5414 40.1212 30.5659 39.3827 31.0349 38.9417C31.5051 38.5007 32.2436 38.524 32.6834 38.993L37.4959 44.1158L47.3053 33.3802C47.7416 32.903 48.4789 32.8715 48.9549 33.3055C49.4298 33.7395 49.4624 34.478 49.0284 34.9528L38.3686 46.6195C38.1504 46.8598 37.8401 46.9975 37.5158 46.9998H37.5076Z" fill="white"/>
</mask>
<g mask="url(#mask0_2114_18655)">
</g>
</g>
<defs>
<clipPath id="clip0_2114_18655">
<rect width="80" height="80" fill="white"/>
</clipPath>
</defs>
</svg>
