<svg width="16" height="16" viewBox="0 0 16 16" fill="none" xmlns="http://www.w3.org/2000/svg">
<path d="M13.6916 2L8.88663 5.6035L9.78016 3.47984L13.6916 2Z" fill="#E17726" stroke="#E17726" stroke-width="0.25" stroke-linecap="round" stroke-linejoin="round"/>
<path d="M2.60834 2L7.37055 5.63714L6.51982 3.47984L2.60834 2Z" fill="#E27625" stroke="#E27625" stroke-width="0.25" stroke-linecap="round" stroke-linejoin="round"/>
<path d="M11.9616 10.3553L10.6831 12.3348L13.4207 13.0988L14.2049 10.3986L11.9616 10.3553Z" fill="#E27625" stroke="#E27625" stroke-width="0.25" stroke-linecap="round" stroke-linejoin="round"/>
<path d="M2.09979 10.3986L2.87923 13.0988L5.61205 12.3348L4.33831 10.3553L2.09979 10.3986Z" fill="#E27625" stroke="#E27625" stroke-width="0.25" stroke-linecap="round" stroke-linejoin="round"/>
<path d="M5.4647 7.01126L4.70428 8.17401L7.41332 8.29893L7.32303 5.34406L5.4647 7.01126Z" fill="#E27625" stroke="#E27625" stroke-width="0.25" stroke-linecap="round" stroke-linejoin="round"/>
<path d="M10.8351 7.0113L8.94836 5.31046L8.88657 8.29897L11.5956 8.17404L10.8351 7.0113Z" fill="#E27625" stroke="#E27625" stroke-width="0.25" stroke-linecap="round" stroke-linejoin="round"/>
<path d="M5.612 12.3348L7.25166 11.5324L5.84014 10.4178L5.612 12.3348Z" fill="#E27625" stroke="#E27625" stroke-width="0.25" stroke-linecap="round" stroke-linejoin="round"/>
<path opacity="0.8" d="M9.04828 11.5324L10.6832 12.3348L10.4598 10.4178L9.04828 11.5324Z" fill="#E27625" stroke="#E27625" stroke-width="0.25" stroke-linecap="round" stroke-linejoin="round"/>
<path d="M10.6832 12.3349L9.04828 11.5325L9.18134 12.6088L9.16707 13.0652L10.6832 12.3349Z" fill="#D5BFB2" stroke="#D5BFB2" stroke-width="0.25" stroke-linecap="round" stroke-linejoin="round"/>
<path d="M5.612 12.3349L7.13287 13.0652L7.12336 12.6088L7.25166 11.5325L5.612 12.3349Z" fill="#D5BFB2" stroke="#D5BFB2" stroke-width="0.25" stroke-linecap="round" stroke-linejoin="round"/>
<path d="M7.16141 9.70668L5.80212 9.30311L6.76216 8.85626L7.16141 9.70668Z" fill="#233447" stroke="#233447" stroke-width="0.25" stroke-linecap="round" stroke-linejoin="round"/>
<path d="M9.13852 9.70668L9.53776 8.85626L10.5026 9.30311L9.13852 9.70668Z" fill="#233447" stroke="#233447" stroke-width="0.25" stroke-linecap="round" stroke-linejoin="round"/>
<path d="M5.61209 12.3348L5.84974 10.3553L4.33838 10.3986L5.61209 12.3348Z" fill="#CC6228" stroke="#CC6228" stroke-width="0.25" stroke-linecap="round" stroke-linejoin="round"/>
<path d="M10.4503 10.3553L10.6832 12.3348L11.9616 10.3986L10.4503 10.3553Z" fill="#CC6228" stroke="#CC6228" stroke-width="0.25" stroke-linecap="round" stroke-linejoin="round"/>
<path d="M11.5956 8.17398L8.88657 8.2989L9.13845 9.7067L9.53769 8.85624L10.5025 9.30309L11.5956 8.17398Z" fill="#CC6228" stroke="#CC6228" stroke-width="0.25" stroke-linecap="round" stroke-linejoin="round"/>
<path d="M5.80216 9.30309L6.7622 8.85624L7.16144 9.7067L7.41332 8.2989L4.70428 8.17398L5.80216 9.30309Z" fill="#CC6228" stroke="#CC6228" stroke-width="0.25" stroke-linecap="round" stroke-linejoin="round"/>
<path d="M4.70435 8.17398L5.84025 10.4178L5.8022 9.30309L4.70435 8.17398Z" fill="#E27525" stroke="#E27525" stroke-width="0.25" stroke-linecap="round" stroke-linejoin="round"/>
<path d="M10.5025 9.30309L10.4598 10.4178L11.5957 8.17398L10.5025 9.30309Z" fill="#E27525" stroke="#E27525" stroke-width="0.25" stroke-linecap="round" stroke-linejoin="round"/>
<path d="M7.41342 8.29889L7.1615 9.70669L7.47993 11.3691L7.55123 9.17816L7.41342 8.29889Z" fill="#E27525" stroke="#E27525" stroke-width="0.25" stroke-linecap="round" stroke-linejoin="round"/>
<path d="M8.88663 8.29889L8.75354 9.17337L8.82009 11.3691L9.13851 9.70669L8.88663 8.29889Z" fill="#E27525" stroke="#E27525" stroke-width="0.25" stroke-linecap="round" stroke-linejoin="round"/>
<path d="M9.13856 9.70674L8.82013 11.3691L9.04827 11.5325L10.4598 10.4178L10.5026 9.30313L9.13856 9.70674Z" fill="#F5841F" stroke="#F5841F" stroke-width="0.25" stroke-linecap="round" stroke-linejoin="round"/>
<path d="M5.80212 9.30313L5.84017 10.4178L7.2517 11.5325L7.47983 11.3691L7.16141 9.70674L5.80212 9.30313Z" fill="#F5841F" stroke="#F5841F" stroke-width="0.25" stroke-linecap="round" stroke-linejoin="round"/>
<path d="M9.16702 13.0652L9.18126 12.6087L9.05771 12.503H7.24219L7.12336 12.6087L7.13287 13.0652L5.612 12.3349L6.1443 12.7769L7.22316 13.5312H9.07194L10.1556 12.7769L10.6831 12.3349L9.16702 13.0652Z" fill="#C0AC9D" stroke="#C0AC9D" stroke-width="0.25" stroke-linecap="round" stroke-linejoin="round"/>
<path d="M9.04822 11.5325L8.82008 11.3691H7.47982L7.25172 11.5325L7.12338 12.6087L7.24221 12.503H9.05773L9.18131 12.6087L9.04822 11.5325Z" fill="#3B4B66" stroke="#3B4B66" stroke-width="0.25" stroke-linecap="round" stroke-linejoin="round"/>
<path d="M13.896 5.83892L14.3 3.8498L13.6916 2L9.04828 5.4834L10.8353 7.01127L13.3589 7.75601L13.915 7.09777L13.6727 6.91998L14.0576 6.56446L13.7629 6.33382L14.1479 6.03593L13.896 5.83892Z" fill="#763E1A" stroke="#763E1A" stroke-width="0.25" stroke-linecap="round" stroke-linejoin="round"/>
<path d="M2 3.8498L2.40873 5.83892L2.14734 6.03593L2.53705 6.33382L2.24239 6.56446L2.62736 6.91998L2.38497 7.09777L2.94103 7.75601L5.46473 7.01127L7.25172 5.4834L2.60835 2L2 3.8498Z" fill="#763E1A" stroke="#763E1A" stroke-width="0.25" stroke-linecap="round" stroke-linejoin="round"/>
<path d="M13.3589 7.75597L10.8352 7.01126L11.5957 8.174L10.4598 10.4178L11.9616 10.3986H14.2049L13.3589 7.75597Z" fill="#F5841F" stroke="#F5841F" stroke-width="0.25" stroke-linecap="round" stroke-linejoin="round"/>
<path d="M5.46469 7.01126L2.94102 7.75597L2.09979 10.3986H4.33831L5.84015 10.4178L4.70427 8.174L5.46469 7.01126Z" fill="#F5841F" stroke="#F5841F" stroke-width="0.25" stroke-linecap="round" stroke-linejoin="round"/>
<path d="M8.88662 8.29892L9.04821 5.48336L9.78011 3.47983H6.51978L7.25168 5.48336L7.41327 8.29892L7.47506 9.18298L7.47982 11.3691H8.82007L8.82483 9.18298L8.88662 8.29892Z" fill="#F5841F" stroke="#F5841F" stroke-width="0.25" stroke-linecap="round" stroke-linejoin="round"/>
</svg>
