<svg width="105" height="105" viewBox="0 0 105 105" fill="none" xmlns="http://www.w3.org/2000/svg">
<path d="M20.7409 4.10186C11.339 4.10186 3.68095 11.8948 4.11961 21.2863C4.52607 29.9859 11.7077 36.9143 20.5078 36.9143H84.4764C93.5459 36.9143 100.898 44.2665 100.898 53.336V84.4767C100.898 93.5462 93.5459 100.898 84.4764 100.898H24.6249C13.2901 100.898 4.10156 91.7097 4.10156 80.3751V21.5334" stroke="white" stroke-width="2" stroke-miterlimit="10" stroke-linecap="round" stroke-linejoin="round"/>
<path d="M20.5078 4.08628H84.4764C93.546 4.08628 100.898 11.4387 100.898 20.5081V24.8147" stroke="white" stroke-width="2" stroke-miterlimit="10" stroke-linecap="round" stroke-linejoin="round"/>
<path d="M88.5935 68.9063C88.5935 71.7378 86.298 74.0332 83.4665 74.0332C80.635 74.0332 78.3396 71.7378 78.3396 68.9063C78.3396 66.0748 80.635 63.7793 83.4665 63.7793C86.298 63.7793 88.5935 66.0748 88.5935 68.9063Z" fill="white"/>
<path d="M20.5078 20.5081H84.492" stroke="white" stroke-width="2" stroke-miterlimit="10" stroke-linecap="round" stroke-linejoin="round"/>
</svg>
