<svg viewBox="0 0 20 20" fill="none" xmlns="http://www.w3.org/2000/svg">
<path fill-rule="evenodd" clip-rule="evenodd" d="M7.08274 10.4163C7.08274 10.2263 7.1469 10.0371 7.27607 9.88293L11.4427 4.88293C11.7369 4.5296 12.2627 4.48127 12.6161 4.77627C12.9694 5.07043 13.0169 5.59543 12.7227 5.9496L8.99274 10.4254L12.5886 14.8938C12.8769 15.2521 12.8202 15.7771 12.4619 16.0654C12.1036 16.3538 11.5794 16.2971 11.2902 15.9388L7.2669 10.9388C7.1444 10.7863 7.08274 10.6013 7.08274 10.4163Z" fill="#3956FE"/>
<mask id="mask0_3849_4161" style="mask-type:luminance" maskUnits="userSpaceOnUse" x="7" y="4" width="6" height="13">
<path fill-rule="evenodd" clip-rule="evenodd" d="M7.08274 10.4163C7.08274 10.2263 7.1469 10.0371 7.27607 9.88293L11.4427 4.88293C11.7369 4.5296 12.2627 4.48127 12.6161 4.77627C12.9694 5.07043 13.0169 5.59543 12.7227 5.9496L8.99274 10.4254L12.5886 14.8938C12.8769 15.2521 12.8202 15.7771 12.4619 16.0654C12.1036 16.3538 11.5794 16.2971 11.2902 15.9388L7.2669 10.9388C7.1444 10.7863 7.08274 10.6013 7.08274 10.4163Z" fill="white"/>
</mask>
<g mask="url(#mask0_3849_4161)">
</g>
</svg>
