<svg width="20" height="20" viewBox="0 0 20 20" fill="none" xmlns="http://www.w3.org/2000/svg">
<path fill-rule="evenodd" clip-rule="evenodd" d="M11.3748 10.0004L15.5485 5.82678C15.9286 5.44665 15.9286 4.83222 15.5485 4.45209C15.1684 4.07196 14.5539 4.07196 14.1738 4.45209L10.0001 8.62575L5.82648 4.45209C5.44635 4.07196 4.83192 4.07196 4.45179 4.45209C4.07165 4.83222 4.07165 5.44665 4.45179 5.82678L8.62545 10.0004L4.45179 14.1741C4.07165 14.5542 4.07165 15.1687 4.45179 15.5488C4.64136 15.7384 4.89025 15.8337 5.13913 15.8337C5.38802 15.8337 5.6369 15.7384 5.82648 15.5488L10.0001 11.3751L14.1738 15.5488C14.3634 15.7384 14.6123 15.8337 14.8612 15.8337C15.11 15.8337 15.3589 15.7384 15.5485 15.5488C15.9286 15.1687 15.9286 14.5542 15.5485 14.1741L11.3748 10.0004Z" fill="#FE5C39"/>
</svg>
