<svg width="20" height="20" viewBox="0 0 20 20" fill="none" xmlns="http://www.w3.org/2000/svg">
<g clip-path="url(#clip0_2347_16389)">
<path d="M9.22234 5.25344C10.3846 5.69925 11.9134 5.94475 13.5272 5.94475C15.141 5.94475 16.6698 5.69925 17.832 5.25344C19.7184 4.52989 20 3.51927 20 2.98128C20 2.4433 19.7184 1.43264 17.832 0.709126C16.6698 0.26328 15.141 0.0177803 13.5272 0.0177803C11.9134 0.0177803 10.3846 0.26328 9.22234 0.709087C7.33598 1.43264 7.05433 2.44326 7.05433 2.98125C7.05433 3.51923 7.33598 4.52989 9.22234 5.25344ZM9.78092 2.16532C10.7549 1.79177 12.1204 1.5775 13.5272 1.5775C14.934 1.5775 16.2994 1.79177 17.2734 2.16532C18.155 2.5035 18.4403 2.86107 18.4403 2.98125C18.4403 3.10142 18.1551 3.45899 17.2734 3.79717C16.2994 4.17073 14.934 4.38499 13.5272 4.38499C12.1204 4.38499 10.7549 4.17073 9.78092 3.79717C8.89929 3.45899 8.61405 3.10142 8.61405 2.98125C8.61405 2.86107 8.89929 2.5035 9.78092 2.16532ZM19.8967 17.8316C20.0723 18.2249 19.8958 18.6861 19.5025 18.8616C17.8783 19.5868 15.7543 19.9822 13.4978 19.9822C13.4146 19.9822 13.3312 19.9817 13.2475 19.9806C12.8169 19.975 12.4723 19.6214 12.4778 19.1907C12.4834 18.76 12.8381 18.4156 13.2677 18.421C15.3655 18.4478 17.4059 18.0896 18.8666 17.4374C19.2599 17.2617 19.721 17.4383 19.8967 17.8316ZM19.8967 14.3612C20.0723 14.7545 19.8958 15.2157 19.5025 15.3913C18.3196 15.9194 16.8447 16.2787 15.2373 16.4303C15.2126 16.4327 15.1879 16.4339 15.1631 16.4339C14.7654 16.4339 14.4257 16.1311 14.3876 15.7272C14.3472 15.2984 14.662 14.918 15.0908 14.8776C16.5312 14.7416 17.8369 14.4268 18.8666 13.967C19.2599 13.7913 19.721 13.9679 19.8967 14.3612ZM19.8966 10.8519C20.0722 11.2451 19.8958 11.7063 19.5025 11.8819C18.3839 12.3813 16.9952 12.7319 15.4864 12.8957C15.4578 12.8988 15.4294 12.9004 15.4012 12.9004C15.0083 12.9004 14.6703 12.6042 14.6269 12.2046C14.5804 11.7765 14.8898 11.3916 15.318 11.3451C16.6673 11.1985 17.8945 10.8917 18.8666 10.4576C19.2599 10.282 19.721 10.4585 19.8966 10.8519ZM19.5025 8.33354C18.0764 8.97021 16.2016 9.36311 14.2233 9.43992C14.213 9.44031 14.2027 9.44051 14.1925 9.44051C13.7757 9.44051 13.4301 9.11098 13.4138 8.69087C13.397 8.2605 13.7324 7.89806 14.1628 7.88134C15.9472 7.81212 17.6177 7.46688 18.8666 6.90928C19.2598 6.73362 19.721 6.91018 19.8966 7.30346C20.0723 7.69678 19.8958 8.15795 19.5025 8.33354ZM6.6288 6.72457C2.97368 6.72457 0 9.69825 0 13.3534C0 17.0085 2.97368 19.9822 6.6288 19.9822C10.2839 19.9822 13.2576 17.0085 13.2576 13.3534C13.2576 9.69825 10.2839 6.72457 6.6288 6.72457ZM6.6288 18.4225C3.83371 18.4225 1.55972 16.1485 1.55972 13.3534C1.55972 10.5582 3.83371 8.28429 6.6288 8.28429C9.4239 8.28429 11.6979 10.5582 11.6979 13.3534C11.6979 16.1485 9.4239 18.4225 6.6288 18.4225ZM8.81241 14.5232C8.81241 15.3608 8.2761 16.0766 7.52564 16.352V16.4728C7.52564 16.9035 7.1765 17.2527 6.74578 17.2527C6.31507 17.2527 5.96592 16.9035 5.96592 16.4728V16.3712C5.64809 16.3067 5.29392 16.2086 4.93702 16.0667C4.53675 15.9076 4.34128 15.4542 4.50033 15.054C4.65943 14.6537 5.11284 14.4583 5.5131 14.6173C6.12361 14.8599 6.68027 14.9131 6.84327 14.9131C7.06517 14.9131 7.25269 14.7345 7.25269 14.5232C7.25269 14.3118 7.00271 14.1332 6.70679 14.1332C5.43971 14.1332 4.48419 13.2951 4.48419 12.1836C4.48419 11.2698 5.11619 10.5012 5.96592 10.2911V10.2339C5.96592 9.80322 6.31507 9.45408 6.74578 9.45408C7.1765 9.45408 7.52564 9.80322 7.52564 10.2339V10.3774C7.72603 10.4303 7.94833 10.5017 8.19823 10.5989C8.59963 10.755 8.79853 11.207 8.6424 11.6084C8.48631 12.0098 8.03435 12.2087 7.63291 12.0526C7.04778 11.825 6.71085 11.7937 6.43384 11.7937C6.21883 11.7937 6.04391 11.9686 6.04391 12.1836C6.04391 12.4059 6.32891 12.5735 6.70679 12.5735C7.25495 12.5735 7.7727 12.7649 8.16478 13.1124C8.57635 13.4772 8.81241 13.9914 8.81241 14.5232Z" fill="#3956FE"/>
</g>
<defs>
<clipPath id="clip0_2347_16389">
<rect width="20" height="20" fill="white"/>
</clipPath>
</defs>
</svg>
