<svg width="16" height="16" viewBox="0 0 16 16" fill="none" xmlns="http://www.w3.org/2000/svg">
<path d="M11.5556 16H2.66671C1.95437 16 1.28473 15.7226 0.781084 15.2189C0.277439 14.7152 6.10352e-05 14.0456 6.10352e-05 13.3333V4.44444C6.10352e-05 3.73213 0.27747 3.06249 0.781115 2.55884C1.28476 2.0552 1.9544 1.77779 2.66674 1.77779H6.22229C6.71323 1.77779 7.11118 2.17574 7.11118 2.66668C7.11118 3.15763 6.71323 3.55558 6.22229 3.55558H2.66671C2.42927 3.55558 2.20607 3.64805 2.03821 3.81591C1.87035 3.98377 1.77785 4.20699 1.77785 4.44444V13.3333C1.77785 13.5708 1.87032 13.794 2.03821 13.9619C2.20607 14.1297 2.42927 14.2222 2.66671 14.2222H11.5556C11.793 14.2222 12.0162 14.1297 12.1841 13.9618C12.352 13.794 12.4444 13.5707 12.4444 13.3333V9.77777C12.4444 9.28683 12.8424 8.88891 13.3333 8.88891C13.8243 8.88891 14.2223 9.28686 14.2223 9.77777V13.3333C14.2223 14.0456 13.9449 14.7152 13.4412 15.2189C12.9375 15.7226 12.2678 16 11.5556 16ZM6.22229 10.6666C5.99478 10.6666 5.7673 10.5799 5.59376 10.4063C5.24664 10.0592 5.24664 9.49633 5.59376 9.14921L12.9651 1.77779H9.77783C9.28689 1.77779 8.88897 1.37984 8.88897 0.888895C8.88897 0.397949 9.28689 5.87037e-07 9.77783 5.87037e-07H15.1112C15.3433 -0.000266377 15.5662 0.0905306 15.7321 0.252879L15.7322 0.252941L15.7339 0.25468L15.7344 0.255177L15.7358 0.256543L15.7367 0.257444L15.7377 0.258437L15.7396 0.260362L15.7415 0.262287L15.7425 0.263281L15.7434 0.264182C15.7441 0.264769 15.7447 0.265402 15.7453 0.266076L15.747 0.267846L15.7471 0.267908C15.9094 0.433807 16.0002 0.656755 15.9999 0.888864V6.2222C15.9999 6.71314 15.602 7.11109 15.111 7.11109C14.6201 7.11109 14.2221 6.71314 14.2221 6.2222V3.03488L6.85067 10.4063C6.67725 10.5799 6.44977 10.6666 6.22229 10.6666Z" fill="#3956FE"/>
</svg>
