<svg width="24" height="24" viewBox="0 0 24 24" fill="none" xmlns="http://www.w3.org/2000/svg">
<path fill-rule="evenodd" clip-rule="evenodd" d="M8.50012 9.5C8.50012 7.57 10.0701 6 12.0001 6C13.9301 6 15.5001 7.57 15.5001 9.5C15.5001 11.08 14.4401 12.403 13.0001 12.837V14C13.0001 14.553 12.5531 15 12.0001 15C11.4471 15 11.0001 14.553 11.0001 14V12C11.0001 11.447 11.4471 11 12.0001 11C12.8271 11 13.5001 10.327 13.5001 9.5C13.5001 8.673 12.8271 8 12.0001 8C11.1731 8 10.5001 8.673 10.5001 9.5C10.5001 10.053 10.0531 10.5 9.50012 10.5C8.94712 10.5 8.50012 10.053 8.50012 9.5ZM11.0001 16.999C11.0001 16.446 11.4471 15.999 12.0001 15.999C12.5531 15.999 13.0001 16.446 13.0001 16.999C13.0001 17.552 12.5531 17.999 12.0001 17.999C11.4471 17.999 11.0001 17.552 11.0001 16.999ZM12.0001 20.002C7.58912 20.002 4.00012 16.413 4.00012 12.002C4.00012 7.59095 7.58912 4.00195 12.0001 4.00195C16.4111 4.00195 20.0001 7.59095 20.0001 12.002C20.0001 16.413 16.4111 20.002 12.0001 20.002ZM12.0001 2.00098C6.48606 2.00098 2.00006 6.48698 2.00006 12.001C2.00006 17.515 6.48606 22.001 12.0001 22.001C17.5141 22.001 22.0001 17.515 22.0001 12.001C22.0001 6.48698 17.5141 2.00098 12.0001 2.00098Z" fill="#3956FE"/>
<mask id="mask0_2347_17560" style="mask-type:luminance" maskUnits="userSpaceOnUse" x="2" y="2" width="20" height="21">
<path fill-rule="evenodd" clip-rule="evenodd" d="M8.50012 9.5C8.50012 7.57 10.0701 6 12.0001 6C13.9301 6 15.5001 7.57 15.5001 9.5C15.5001 11.08 14.4401 12.403 13.0001 12.837V14C13.0001 14.553 12.5531 15 12.0001 15C11.4471 15 11.0001 14.553 11.0001 14V12C11.0001 11.447 11.4471 11 12.0001 11C12.8271 11 13.5001 10.327 13.5001 9.5C13.5001 8.673 12.8271 8 12.0001 8C11.1731 8 10.5001 8.673 10.5001 9.5C10.5001 10.053 10.0531 10.5 9.50012 10.5C8.94712 10.5 8.50012 10.053 8.50012 9.5ZM11.0001 16.999C11.0001 16.446 11.4471 15.999 12.0001 15.999C12.5531 15.999 13.0001 16.446 13.0001 16.999C13.0001 17.552 12.5531 17.999 12.0001 17.999C11.4471 17.999 11.0001 17.552 11.0001 16.999ZM12.0001 20.002C7.58912 20.002 4.00012 16.413 4.00012 12.002C4.00012 7.59095 7.58912 4.00195 12.0001 4.00195C16.4111 4.00195 20.0001 7.59095 20.0001 12.002C20.0001 16.413 16.4111 20.002 12.0001 20.002ZM12.0001 2.00098C6.48606 2.00098 2.00006 6.48698 2.00006 12.001C2.00006 17.515 6.48606 22.001 12.0001 22.001C17.5141 22.001 22.0001 17.515 22.0001 12.001C22.0001 6.48698 17.5141 2.00098 12.0001 2.00098Z" fill="white"/>
</mask>
<g mask="url(#mask0_2347_17560)">
</g>
</svg>
