<svg viewBox="0 0 28 28" fill="none" xmlns="http://www.w3.org/2000/svg">
<path fill-rule="evenodd" clip-rule="evenodd" d="M11.5076 21C11.1856 21 10.8776 20.867 10.6571 20.6325L4.9836 14.5904C4.54144 14.1214 4.56594 13.3829 5.03494 12.9419C5.5051 12.5009 6.2436 12.5242 6.68344 12.9932L11.4959 18.116L21.3053 7.38036C21.7416 6.9032 22.4789 6.8717 22.9549 7.3057C23.4298 7.7397 23.4624 8.4782 23.0284 8.95303L12.3686 20.6197C12.1504 20.86 11.8401 20.9977 11.5158 21H11.5076Z" fill="white"/>
<mask id="mask0_2347_18113" style="mask-type:luminance" maskUnits="userSpaceOnUse" x="4" y="7" width="20" height="14">
<path fill-rule="evenodd" clip-rule="evenodd" d="M11.5076 21C11.1856 21 10.8776 20.867 10.6571 20.6325L4.9836 14.5904C4.54144 14.1214 4.56594 13.3829 5.03494 12.9419C5.5051 12.5009 6.2436 12.5242 6.68344 12.9932L11.4959 18.116L21.3053 7.38036C21.7416 6.9032 22.4789 6.8717 22.9549 7.3057C23.4298 7.7397 23.4624 8.4782 23.0284 8.95303L12.3686 20.6197C12.1504 20.86 11.8401 20.9977 11.5158 21H11.5076Z" fill="white"/>
</mask>
<g mask="url(#mask0_2347_18113)">
</g>
</svg>
