<svg viewBox="0 0 24 24" fill="none" xmlns="http://www.w3.org/2000/svg">
<circle cx="12" cy="12" r="12" fill="#2775CA"/>
<path d="M10.0444 19.1296C10.0444 19.3904 9.86667 19.4774 9.6 19.4774C6.31111 18.434 4 15.4779 4 12C4 8.52215 6.31111 5.56597 9.6 4.52262C9.86667 4.43567 10.0444 4.60956 10.0444 4.8704V5.47903C10.0444 5.65292 9.95556 5.82681 9.77778 5.91376C7.2 6.87017 5.42222 9.21772 5.42222 12C5.42222 14.7823 7.28889 17.2168 9.77778 18.0862C9.95556 18.1732 10.0444 18.3471 10.0444 18.521V19.1296Z" fill="white"/>
<path d="M12.7111 16.9559C12.7111 17.1298 12.5334 17.3037 12.3556 17.3037H11.6445C11.4667 17.3037 11.2889 17.1298 11.2889 16.9559V15.9126C9.86669 15.7387 9.15558 14.9562 8.88892 13.8259C8.88892 13.652 8.9778 13.4781 9.15558 13.4781H9.95558C10.1334 13.4781 10.2222 13.565 10.3111 13.7389C10.4889 14.3476 10.8445 14.8692 12 14.8692C12.8889 14.8692 13.5111 14.4345 13.5111 13.7389C13.5111 13.0434 13.1556 12.7825 11.9111 12.6086C10.0445 12.3478 9.15558 11.8261 9.15558 10.348C9.15558 9.21772 10.0445 8.34826 11.2889 8.17436V7.13101C11.2889 6.95711 11.4667 6.78322 11.6445 6.78322H12.3556C12.5334 6.78322 12.7111 6.95711 12.7111 7.13101V8.17436C13.7778 8.34826 14.4889 8.95688 14.6667 9.91329C14.6667 10.0872 14.5778 10.2611 14.4 10.2611H13.6889C13.5111 10.2611 13.4222 10.1741 13.3334 10.0002C13.1556 9.39161 12.7111 9.13077 11.9111 9.13077C11.0222 9.13077 10.5778 9.5655 10.5778 10.1741C10.5778 10.7828 10.8445 11.1305 12.1778 11.3044C14.0445 11.5653 14.9334 12.0869 14.9334 13.565C14.9334 14.6953 14.0445 15.6517 12.7111 15.9126V16.9559Z" fill="white"/>
<path d="M14.4 19.4774C14.1333 19.5643 13.9556 19.3904 13.9556 19.1296V18.521C13.9556 18.3471 14.0445 18.1732 14.2222 18.0862C16.8 17.1298 18.5778 14.7823 18.5778 12C18.5778 9.21772 16.7111 6.78322 14.2222 5.91376C14.0445 5.82681 13.9556 5.65292 13.9556 5.47903V4.8704C13.9556 4.60956 14.1333 4.52262 14.4 4.52262C17.6 5.56597 20 8.52215 20 12C20 15.4779 17.6889 18.434 14.4 19.4774Z" fill="white"/>
</svg>
