<svg width="28" height="28" viewBox="0 0 28 28" fill="none" xmlns="http://www.w3.org/2000/svg">
<path d="M6.997 13.4073C6.99702 13.2731 7.02355 13.1402 7.07506 13.0163C7.12657 12.8924 7.20205 12.7799 7.29717 12.6852C7.39231 12.5906 7.50517 12.5156 7.62934 12.4647C7.7535 12.4138 7.8865 12.3879 8.0207 12.3885L9.71798 12.3941C9.98857 12.3941 10.2481 12.5016 10.4394 12.6929C10.6308 12.8843 10.7383 13.1438 10.7383 13.4144V19.8321C10.9294 19.7753 11.1748 19.7149 11.4433 19.6517C11.6298 19.6079 11.7961 19.5023 11.9151 19.3521C12.034 19.2019 12.0988 19.016 12.0987 18.8244V10.8635C12.0987 10.5929 12.2062 10.3334 12.3975 10.142C12.5889 9.95059 12.8484 9.84306 13.1191 9.843H14.8197C15.0903 9.84306 15.3498 9.95059 15.5412 10.142C15.7325 10.3334 15.84 10.5929 15.84 10.8635V18.2519C15.84 18.2519 16.2658 18.0796 16.6806 17.9046C16.8346 17.8394 16.9661 17.7304 17.0586 17.591C17.1511 17.4516 17.2005 17.288 17.2006 17.1208V8.31269C17.2006 8.04211 17.3081 7.7826 17.4994 7.59125C17.6907 7.39991 17.9502 7.2924 18.2208 7.29234H19.9214C20.192 7.29234 20.4515 7.39983 20.6429 7.5912C20.8342 7.78254 20.9418 8.04207 20.9418 8.31269V15.5659C22.4162 14.4974 23.9103 13.2123 25.096 11.6669C25.2681 11.4426 25.3819 11.1792 25.4274 10.9003C25.4728 10.6213 25.4485 10.3354 25.3567 10.0681C24.8078 8.4889 23.9354 7.04168 22.7951 5.81905C21.6549 4.59644 20.2719 3.6253 18.7348 2.96782C17.1977 2.31035 15.5402 1.98099 13.8685 2.00085C12.1968 2.0207 10.5477 2.38932 9.02662 3.08312C7.50555 3.77691 6.14606 4.78061 5.03517 6.02997C3.92427 7.27932 3.08642 8.74685 2.57524 10.3386C2.06406 11.9304 1.8908 13.6113 2.06656 15.2739C2.24231 16.9364 2.76321 18.544 3.59591 19.9937C3.74097 20.2437 3.95438 20.4472 4.21107 20.5802C4.46775 20.7132 4.75706 20.7702 5.04503 20.7445C5.3667 20.7163 5.76721 20.6761 6.2434 20.6202C6.45069 20.5967 6.64207 20.4977 6.78107 20.3422C6.92009 20.1866 6.99702 19.9853 6.99719 19.7767L6.997 13.4073Z" fill="white"/>
<path d="M6.95996 23.7005C8.75254 25.0045 10.871 25.7874 13.0809 25.9622C15.2908 26.1369 17.5059 25.6971 19.4813 24.691C21.4567 23.6848 23.1151 22.152 24.2734 20.2618C25.4314 18.3716 26.0442 16.1978 26.0436 13.9811C26.0436 13.7044 26.0307 13.4308 26.0123 13.1587C21.6221 19.7064 13.5161 22.7674 6.96034 23.6995" fill="white"/>
</svg>
