<svg width="24" height="24" viewBox="0 0 24 24" fill="none" xmlns="http://www.w3.org/2000/svg">
<circle cx="12" cy="12" r="12" fill="#3B4B66" fill-opacity="0.68"/>
<path fill-rule="evenodd" clip-rule="evenodd" d="M16.671 8.00002L12.3343 10.9787C12.1296 11.0954 11.879 11.0954 11.6743 10.9787L7.33765 8.00002H16.671ZM16.671 6.66669H7.33765C6.23498 6.66669 5.33765 7.56402 5.33765 8.66669V15.3334C5.33765 16.436 6.23498 17.3334 7.33765 17.3334H16.671C17.7736 17.3334 18.671 16.436 18.671 15.3334V8.66669C18.671 7.56402 17.7736 6.66669 16.671 6.66669Z" fill="white"/>
<mask id="mask0_2484_19745" style="mask-type:luminance" maskUnits="userSpaceOnUse" x="5" y="6" width="14" height="12">
<path fill-rule="evenodd" clip-rule="evenodd" d="M16.671 8.00002L12.3343 10.9787C12.1296 11.0954 11.879 11.0954 11.6743 10.9787L7.33765 8.00002H16.671ZM16.671 6.66669H7.33765C6.23498 6.66669 5.33765 7.56402 5.33765 8.66669V15.3334C5.33765 16.436 6.23498 17.3334 7.33765 17.3334H16.671C17.7736 17.3334 18.671 16.436 18.671 15.3334V8.66669C18.671 7.56402 17.7736 6.66669 16.671 6.66669Z" fill="white"/>
</mask>
<g mask="url(#mask0_2484_19745)">
<rect x="4" y="4" width="16" height="16" fill="white"/>
</g>
</svg>
