<svg width="16" height="16" viewBox="0 0 16 16" fill="none" xmlns="http://www.w3.org/2000/svg">
<g clip-path="url(#clip0_2484_19978)">
<path fill-rule="evenodd" clip-rule="evenodd" d="M16 8C16 12.4183 12.4183 16 8 16C3.58172 16 0 12.4183 0 8C0 3.58172 3.58172 0 8 0C12.4183 0 16 3.58172 16 8ZM8.28668 5.90603C7.50857 6.22968 5.95342 6.89954 3.62126 7.91563C3.24255 8.06623 3.04417 8.21356 3.02611 8.35762C2.99559 8.60108 3.30048 8.69695 3.71565 8.8275C3.77212 8.84525 3.83064 8.86365 3.89062 8.88315C4.29909 9.01593 4.84855 9.17126 5.13419 9.17743C5.3933 9.18303 5.68249 9.07621 6.00176 8.85697C8.18077 7.38608 9.30559 6.64262 9.37621 6.62659C9.42603 6.61529 9.49507 6.60107 9.54184 6.64264C9.58862 6.68422 9.58402 6.76296 9.57907 6.78408C9.54887 6.91284 8.35209 8.02547 7.73275 8.60126C7.53967 8.78076 7.40272 8.90809 7.37472 8.93717C7.312 9.00231 7.24808 9.06393 7.18665 9.12315C6.80718 9.48897 6.52261 9.76329 7.20241 10.2113C7.52909 10.4265 7.7905 10.6046 8.05129 10.7822C8.33611 10.9761 8.62019 11.1696 8.98774 11.4105C9.08138 11.4719 9.17082 11.5357 9.25792 11.5978C9.58938 11.8341 9.88717 12.0464 10.2551 12.0125C10.4688 11.9928 10.6896 11.7918 10.8018 11.1923C11.0668 9.77551 11.5878 6.70572 11.7081 5.44073C11.7187 5.3299 11.7054 5.18806 11.6948 5.1258C11.6841 5.06353 11.6618 4.97482 11.5809 4.90915C11.4851 4.83137 11.3371 4.81497 11.2709 4.81614C10.97 4.82144 10.5084 4.98196 8.28668 5.90603Z" fill="#3B4B66" fill-opacity="0.68"/>
</g>
<defs>
<clipPath id="clip0_2484_19978">
<rect width="16" height="16" fill="white"/>
</clipPath>
</defs>
</svg>
