<svg width="30" height="20" viewBox="0 0 30 20" fill="none" xmlns="http://www.w3.org/2000/svg">
<g clip-path="url(#clip0_2484_22577)">
<path d="M0 0H30V20H0V0Z" fill="white"/>
<path d="M0 0H30V1.53801H0V0ZM0 3.07602H30V4.61404H0V3.07602ZM0 6.15205H30V7.69006H0V6.15205ZM0 9.22807H30V10.7661H0V9.22807ZM0 12.3099H30V13.848H0V12.3099ZM0 15.386H30V16.924H0V15.386ZM0 18.462H30V20H0V18.462Z" fill="#D80027"/>
<path d="M0 0H15V10.7661H0V0Z" fill="#2E52B2"/>
<path d="M2.79532 8.1227L2.56141 7.37416L2.3041 8.1227H1.53217L2.1579 8.57299L1.92398 9.32153L2.56141 8.85954L3.18129 9.32153L2.94152 8.57299L3.57895 8.1227H2.79532ZM6.08772 8.1227L5.84796 7.37416L5.60234 8.1227H4.83041L5.45614 8.57299L5.22222 9.32153L5.84796 8.85954L6.47953 9.32153L6.24562 8.57299L6.87135 8.1227H6.08772ZM9.39182 8.1227L9.14035 7.37416L8.90644 8.1227H8.11696L8.76024 8.57299L8.51462 9.32153L9.14035 8.85954L9.78363 9.32153L9.53801 8.57299L10.1637 8.1227H9.39182ZM12.6784 8.1227L12.4444 7.37416L12.1988 8.1227H11.4211L12.0526 8.57299L11.8187 9.32153L12.4444 8.85954L13.076 9.32153L12.8246 8.57299L13.4678 8.1227H12.6784ZM5.84796 4.4034L5.60234 5.15194H4.83041L5.45614 5.61393L5.22222 6.35077L5.84796 5.89463L6.47953 6.35077L6.24562 5.61393L6.87135 5.15194H6.08772L5.84796 4.4034ZM2.56141 4.4034L2.3041 5.15194H1.53217L2.1579 5.61393L1.92398 6.35077L2.56141 5.89463L3.18129 6.35077L2.94152 5.61393L3.57895 5.15194H2.79532L2.56141 4.4034ZM9.14035 4.4034L8.90644 5.15194H8.11696L8.76024 5.61393L8.51462 6.35077L9.14035 5.89463L9.78363 6.35077L9.53801 5.61393L10.1637 5.15194H9.39182L9.14035 4.4034ZM12.4444 4.4034L12.1988 5.15194H11.4211L12.0526 5.61393L11.8187 6.35077L12.4444 5.89463L13.076 6.35077L12.8246 5.61393L13.4678 5.15194H12.6784L12.4444 4.4034ZM2.56141 1.44434L2.3041 2.18118H1.53217L2.1579 2.64317L1.92398 3.38586L2.56141 2.92387L3.18129 3.38586L2.94152 2.64317L3.57895 2.18118H2.79532L2.56141 1.44434ZM5.84796 1.44434L5.60234 2.18118H4.83041L5.45614 2.64317L5.22222 3.38586L5.84796 2.92387L6.47953 3.38586L6.24562 2.64317L6.87135 2.18118H6.08772L5.84796 1.44434ZM9.14035 1.44434L8.90644 2.18118H8.11696L8.76024 2.64317L8.51462 3.38586L9.14035 2.92387L9.78363 3.38586L9.53801 2.64317L10.1637 2.18118H9.39182L9.14035 1.44434ZM12.4444 1.44434L12.1988 2.18118H11.4211L12.0526 2.64317L11.8187 3.38586L12.4444 2.92387L13.076 3.38586L12.8246 2.64317L13.4678 2.18118H12.6784L12.4444 1.44434Z" fill="white"/>
</g>
<defs>
<clipPath id="clip0_2484_22577">
<rect width="30" height="20" rx="4" fill="white"/>
</clipPath>
</defs>
</svg>
